<?xml version="1.0" standalone="no"?>
<!DOCTYPE svg PUBLIC "-//W3C//DTD SVG 20010904//EN"
 "http://www.w3.org/TR/2001/REC-SVG-20010904/DTD/svg10.dtd">
<svg version="1.0" xmlns="http://www.w3.org/2000/svg"
 width="1080.000000pt" height="1080.000000pt" viewBox="0 0 1080.000000 1080.000000"
 preserveAspectRatio="xMidYMid meet">
<metadata>
Created by potrace 1.14, written by Peter Selinger 2001-2017
</metadata>
<g transform="translate(0.000000,1080.000000) scale(0.100000,-0.100000)"
fill="#000000" stroke="none">
<path d="M5100 10399 c-1216 -69 -2370 -588 -3241 -1458 -402 -403 -698 -816
-949 -1326 -211 -427 -345 -824 -429 -1270 -248 -1305 22 -2629 761 -3734 399
-596 954 -1124 1580 -1502 257 -155 650 -339 933 -437 521 -178 981 -259 1540
-269 624 -11 1135 65 1694 253 1706 575 2973 2018 3321 3785 55 280 79 515 87
844 15 697 -96 1326 -344 1955 -543 1373 -1674 2445 -3073 2910 -610 203
-1232 285 -1880 249z m730 -94 c627 -58 1172 -210 1735 -485 771 -377 1445
-966 1922 -1680 435 -651 703 -1376 797 -2155 139 -1154 -142 -2338 -785
-3302 -192 -289 -377 -513 -633 -768 -516 -514 -1097 -885 -1781 -1138 -810
-299 -1741 -375 -2604 -212 -1292 244 -2440 1003 -3172 2095 -460 687 -733
1457 -815 2295 -32 334 -19 818 32 1160 214 1442 1036 2694 2276 3469 657 411
1385 652 2193 725 160 15 657 12 835 -4z"/>
<path d="M5197 10026 c-113 -42 -143 -163 -58 -240 11 -10 59 -32 107 -50 92
-33 117 -54 98 -83 -28 -44 -118 -35 -130 13 -6 22 -11 24 -71 24 l-65 0 7
-27 c25 -102 120 -157 238 -138 95 16 149 71 149 151 0 77 -33 109 -153 150
-86 29 -99 38 -99 70 0 49 93 55 110 8 9 -22 15 -24 71 -24 l62 0 -7 31 c-19
97 -151 155 -259 115z"/>
<path d="M5637 9979 c-4 -28 -4 -56 -1 -60 3 -5 24 -9 47 -9 73 0 71 3 53
-183 -22 -226 -26 -204 40 -213 37 -4 59 -3 63 4 4 7 12 76 19 154 7 79 15
160 18 182 l6 38 58 -6 57 -7 7 52 c4 29 3 55 -1 59 -4 4 -73 13 -153 19 -80
7 -159 15 -176 17 -31 6 -31 5 -37 -47z"/>
<path d="M6215 9948 c-22 -71 -65 -292 -65 -336 0 -80 33 -132 107 -169 110
-53 226 -28 277 60 20 34 96 316 96 356 0 5 -27 15 -60 24 -59 15 -60 14 -65
-7 -3 -11 -19 -81 -35 -155 -17 -73 -38 -144 -47 -157 -31 -47 -98 -43 -137 9
l-20 27 33 148 c18 81 35 156 37 168 5 17 -2 22 -46 32 -64 15 -70 15 -75 0z"/>
<path d="M4013 9822 c-79 -26 -143 -51 -143 -57 0 -12 139 -457 144 -463 4 -3
293 85 308 94 5 3 -17 89 -27 101 -1 2 -41 -11 -90 -27 -49 -17 -92 -30 -96
-30 -8 0 -29 55 -29 76 0 8 35 24 85 40 47 14 85 31 85 37 0 25 -24 87 -34 87
-6 0 -47 -11 -91 -25 -44 -14 -81 -25 -82 -25 -8 0 -23 74 -17 79 5 4 44 18
88 31 43 13 80 29 82 35 6 14 -20 88 -32 91 -5 1 -73 -19 -151 -44z"/>
<path d="M6874 9777 c-3 -8 -43 -111 -89 -229 -46 -117 -80 -216 -77 -220 4
-4 50 -23 102 -43 158 -61 264 -58 340 11 69 63 101 163 79 250 -10 38 -25 61
-68 104 -54 54 -90 72 -263 136 -11 4 -20 0 -24 -9z m134 -152 c80 -34 113
-95 92 -171 -24 -85 -98 -119 -190 -89 -45 15 -50 19 -44 38 8 27 84 219 90
229 7 11 9 10 52 -7z"/>
<path d="M3431 9603 c-26 -9 -67 -37 -97 -67 -41 -40 -56 -63 -69 -109 -19
-65 -15 -106 16 -177 71 -161 275 -200 413 -79 59 52 86 110 86 182 0 31 -2
57 -5 57 -2 0 -29 -11 -60 -24 -44 -20 -55 -30 -55 -48 0 -89 -125 -148 -208
-98 -35 21 -71 87 -72 128 0 38 31 93 64 113 38 23 113 25 143 4 20 -14 26
-13 77 12 31 15 56 30 56 35 0 11 -63 56 -103 73 -46 19 -129 18 -186 -2z"/>
<path d="M7513 9508 c-25 -32 -235 -419 -230 -425 11 -10 269 -153 278 -153 5
0 18 19 30 42 25 49 28 45 -83 106 -38 20 -68 39 -68 42 0 3 10 22 23 42 l22
38 79 -45 c43 -25 82 -42 87 -39 5 3 18 23 29 44 l20 39 -75 42 c-41 22 -77
45 -80 50 -6 9 21 69 32 69 3 0 43 -20 89 -45 l82 -45 27 46 c15 25 25 47 23
48 -1 2 -50 29 -108 61 -58 32 -119 66 -136 76 -25 15 -34 16 -41 7z"/>
<path d="M2917 9317 c-25 -18 -46 -34 -47 -37 0 -3 36 -56 80 -119 44 -63 78
-116 76 -118 -2 -2 -86 17 -187 42 -191 48 -191 48 -243 10 -17 -13 -9 -27
124 -219 l143 -206 36 27 c20 14 42 31 48 36 10 7 -7 39 -67 125 -44 64 -78
118 -76 120 3 2 88 -17 189 -43 l185 -47 35 26 35 27 -139 201 c-77 111 -141
203 -142 205 -2 1 -24 -12 -50 -30z"/>
<path d="M5110 9264 c-157 -14 -336 -39 -470 -66 -1009 -200 -1894 -794 -2470
-1657 -642 -962 -815 -2182 -469 -3296 361 -1158 1272 -2101 2414 -2498 805
-279 1688 -289 2485 -26 1263 416 2228 1449 2550 2732 83 330 114 589 114 952
0 456 -57 810 -199 1230 -303 901 -921 1654 -1749 2129 -433 249 -908 407
-1446 481 -111 16 -650 29 -760 19z m673 -59 c630 -68 1180 -263 1701 -602
974 -634 1592 -1652 1718 -2828 17 -154 17 -583 0 -745 -92 -894 -475 -1701
-1104 -2330 -503 -502 -1105 -841 -1793 -1010 -293 -72 -507 -99 -830 -107
-394 -9 -760 38 -1137 146 -1490 428 -2575 1721 -2743 3271 -23 213 -21 617 4
835 131 1124 734 2113 1671 2742 522 350 1094 558 1730 627 177 19 606 20 783
1z"/>
<path d="M5020 8618 l0 -288 164 0 164 0 31 -37 31 -38 19 23 c11 12 21 28 24
35 2 9 51 13 173 17 l169 5 3 285 2 285 -178 -5 c-135 -4 -183 -9 -196 -19
-15 -13 -19 -13 -26 0 -7 11 -48 15 -195 19 l-185 5 0 -287z m358 -2 c2 -172
6 -254 14 -263 10 -12 6 -14 -23 -8 -19 3 -93 8 -164 10 -174 4 -161 3 -147
17 9 9 12 79 12 255 l0 244 153 -3 152 -3 3 -249z m372 11 c0 -160 4 -247 11
-254 16 -16 -44 -24 -173 -22 -62 1 -126 -2 -143 -6 -25 -6 -28 -5 -17 6 9 10
12 76 12 259 0 136 3 250 7 253 3 4 73 7 155 7 l148 0 0 -243z"/>
<path d="M4295 8461 c-465 -172 -855 -421 -1205 -770 -80 -80 -149 -144 -153
-143 -5 1 -6 -1 -4 -5 3 -5 -1 -16 -8 -27 -10 -13 -20 -16 -37 -11 -21 7 -22
6 -5 -7 17 -13 17 -15 -7 -35 -14 -13 -28 -18 -31 -13 -4 6 -1 10 5 10 6 0 8
5 4 11 -5 8 -10 6 -16 -5 -7 -12 -5 -23 4 -34 12 -15 11 -16 -4 -3 -15 11 -21
9 -43 -17 -140 -166 -325 -478 -429 -722 -65 -154 -116 -307 -116 -348 0 -49
29 -95 73 -115 46 -22 69 -21 117 3 47 24 48 26 103 181 264 742 802 1351
1506 1704 119 60 287 130 395 165 97 32 128 62 133 131 5 62 -14 102 -38 82
-11 -9 -20 -8 -39 2 -39 22 -66 18 -205 -34z"/>
<path d="M6226 8481 c-20 -37 -20 -74 -2 -109 23 -45 48 -60 163 -101 531
-187 982 -495 1327 -907 266 -319 432 -613 573 -1019 23 -64 35 -84 62 -102
73 -49 172 -17 201 64 13 39 13 47 -9 115 -81 254 -221 544 -374 773 -111 167
-159 228 -169 213 -8 -10 -9 -9 -5 4 3 9 0 24 -8 34 -10 15 -16 16 -27 6 -8
-6 -18 -9 -21 -5 -4 3 1 12 11 20 16 13 16 14 0 9 -13 -4 -15 -1 -11 12 6 14
4 15 -8 5 -12 -10 -20 -7 -43 18 -24 26 -26 32 -15 47 12 15 12 15 -1 5 -13
-10 -35 8 -135 109 -353 355 -770 625 -1210 783 -154 56 -185 62 -225 45 -23
-10 -33 -10 -44 -1 -12 10 -18 7 -30 -18z"/>
<path d="M5265 7923 c-359 -17 -772 -136 -1078 -310 -219 -124 -377 -243 -563
-424 -44 -43 -84 -76 -89 -71 -5 4 -5 -1 -2 -10 6 -18 -15 -42 -27 -30 -4 4
-6 0 -4 -8 1 -8 -1 -14 -7 -15 -21 -1 -36 -18 -31 -32 4 -10 2 -13 -7 -10 -8
3 -43 -35 -89 -97 -268 -357 -432 -781 -479 -1240 -15 -152 -6 -535 15 -669
135 -833 640 -1520 1389 -1888 552 -271 1179 -329 1777 -165 299 82 597 231
860 429 134 102 369 339 476 482 272 363 432 759 491 1210 22 166 21 511 -1
675 -58 432 -213 817 -468 1167 -21 29 -44 52 -51 50 -6 -1 -11 4 -9 12 3 17
-26 51 -44 51 -8 0 -11 6 -8 15 5 11 2 13 -12 8 -14 -5 -16 -3 -10 12 4 11 4
16 0 12 -4 -4 -59 45 -123 108 -449 443 -989 690 -1606 735 -134 9 -167 10
-300 3z m480 -128 c775 -119 1442 -605 1785 -1300 172 -347 250 -685 250
-1081 0 -487 -111 -886 -358 -1294 -35 -58 -81 -129 -103 -158 -23 -30 -37
-58 -33 -65 4 -6 4 -9 -1 -5 -10 10 -37 -11 -29 -23 3 -5 0 -9 -5 -9 -6 0 -10
-6 -8 -12 1 -7 -4 -12 -10 -11 -7 2 -13 -4 -13 -12 0 -8 -5 -14 -12 -12 -7 1
-12 -7 -13 -18 0 -11 -6 -19 -13 -17 -8 1 -11 -2 -8 -7 9 -13 -164 -185 -274
-272 -342 -273 -706 -432 -1155 -506 -155 -25 -543 -25 -700 0 -253 42 -472
110 -691 217 -161 77 -266 141 -409 249 -110 84 -328 289 -320 301 3 5 -4 11
-14 15 -13 4 -18 12 -14 21 3 9 0 14 -8 12 -8 -2 -13 3 -12 9 2 7 -2 12 -9 10
-6 -1 -14 9 -18 23 -4 14 -12 24 -19 22 -7 -1 -10 2 -6 8 3 5 -9 29 -28 53
-63 76 -178 267 -242 401 -178 369 -248 700 -240 1131 12 658 257 1224 728
1682 401 390 871 604 1462 667 90 9 434 -3 540 -19z"/>
<path d="M5101 7436 c-14 -15 -40 -27 -65 -31 -69 -11 -232 -54 -302 -79 -50
-18 -73 -22 -91 -15 -40 15 -43 11 -28 -32 8 -23 15 -52 15 -65 0 -12 5 -26
10 -29 6 -3 10 -15 10 -26 0 -13 4 -18 12 -13 6 4 8 3 5 -3 -3 -5 5 -38 18
-74 13 -35 24 -60 24 -56 1 11 41 -12 41 -24 0 -6 -33 -25 -72 -43 -83 -38
-202 -107 -275 -160 -65 -47 -116 -49 -92 -5 8 16 0 32 -47 92 -31 39 -61 71
-66 69 -5 -1 -7 2 -4 7 3 5 -8 26 -26 47 -17 22 -28 31 -25 22 4 -12 -1 -21
-16 -29 -32 -17 -77 -57 -204 -181 -61 -59 -115 -107 -120 -106 -4 2 -19 -5
-31 -14 -24 -16 -24 -16 -5 -45 10 -15 24 -37 29 -48 6 -11 35 -40 65 -63 83
-67 109 -92 109 -107 0 -7 -28 -60 -62 -117 -95 -156 -125 -225 -110 -248 7
-11 12 -22 12 -25 0 -16 -60 1 -175 49 -98 40 -134 61 -146 81 l-17 26 -32
-88 c-40 -112 -66 -206 -90 -329 -17 -91 -18 -99 -2 -111 9 -7 13 -13 7 -13
-5 0 4 -8 20 -19 29 -17 50 -22 169 -37 28 -3 62 -15 77 -26 l27 -20 4 -185
c3 -161 5 -186 21 -197 20 -15 23 -36 5 -36 -7 0 -74 -9 -148 -19 -134 -18
-135 -18 -164 2 l-29 21 8 -65 c4 -35 9 -77 11 -94 3 -30 40 -187 51 -215 8
-21 14 -43 15 -57 1 -7 5 -13 10 -13 5 0 6 -4 3 -10 -3 -5 8 -30 25 -55 39
-57 76 -58 180 -1 55 30 95 35 136 16 33 -15 45 -30 78 -96 22 -44 42 -81 45
-84 8 -7 38 -57 58 -97 11 -21 24 -33 37 -33 22 0 54 -16 46 -23 -182 -141
-221 -167 -256 -167 l-36 0 21 -36 c12 -20 20 -39 17 -42 -3 -2 4 -18 15 -33
11 -16 18 -29 15 -29 -5 0 188 -193 236 -236 37 -33 71 -37 108 -11 18 12 38
31 44 41 11 19 54 72 89 108 16 17 39 23 82 18 11 -1 47 -19 80 -39 33 -21 95
-57 137 -80 43 -23 84 -51 92 -62 13 -20 14 -19 26 16 7 20 18 39 26 42 28 10
12 24 -88 74 -57 28 -137 74 -180 101 -60 38 -82 47 -102 42 -14 -3 -26 -2
-26 3 0 5 157 214 349 464 l349 454 -65 69 c-75 79 -125 175 -148 281 -19 90
-19 138 1 233 31 154 115 280 246 369 344 234 817 43 903 -364 8 -37 15 -92
15 -121 0 -118 -56 -279 -128 -363 -34 -39 -40 -66 -8 -33 9 9 20 13 24 9 4
-4 1 -10 -5 -12 -7 -3 -13 -11 -13 -19 0 -17 -12 -18 -28 -2 -10 10 -19 6 -43
-19 l-31 -31 183 -238 c101 -132 260 -338 353 -459 l169 -220 -37 -3 c-23 -2
-63 -20 -104 -46 -37 -24 -114 -67 -172 -96 -58 -29 -107 -54 -109 -56 -3 -2
3 -10 11 -17 9 -6 25 -30 37 -52 11 -22 20 -33 21 -24 0 19 22 39 70 65 19 10
78 45 132 76 117 70 151 75 201 26 19 -18 44 -49 57 -68 89 -130 121 -124 304
64 121 123 135 141 142 182 3 16 12 36 20 45 21 24 17 29 -24 29 -31 0 -54 12
-137 76 -55 41 -104 80 -110 85 -14 14 15 30 43 24 14 -4 21 -2 18 4 -4 5 -2
12 4 16 6 4 8 11 5 16 -4 5 -1 9 4 9 6 0 11 5 11 10 0 6 11 22 24 37 13 14 41
59 62 100 21 41 50 88 66 105 25 27 33 30 68 25 21 -3 65 -17 97 -31 77 -36
132 -42 158 -19 21 19 52 79 35 68 -15 -9 -12 2 6 20 9 8 17 27 18 40 0 14 5
25 9 25 5 0 7 6 4 13 -2 6 2 25 10 40 8 16 12 31 10 34 -3 2 -1 19 4 36 15 49
39 188 39 225 l0 33 -27 -20 c-28 -19 -29 -19 -167 -1 -147 20 -173 30 -140
54 17 13 19 30 22 201 l4 186 30 19 c31 19 53 24 162 35 48 6 64 12 91 39 36
36 35 28 9 166 -23 117 -65 256 -102 340 -20 45 -20 45 -30 19 -8 -21 -35 -36
-149 -82 -76 -32 -143 -57 -150 -57 -19 0 -25 18 -12 39 11 16 5 33 -36 112
-26 52 -70 129 -98 172 l-50 78 30 27 c17 15 45 38 63 52 53 40 98 89 106 113
4 12 14 27 23 34 14 10 13 13 -9 32 -14 11 -32 20 -41 21 -9 0 -38 24 -65 53
-81 85 -237 227 -251 227 -7 0 -13 10 -13 23 -1 21 -2 20 -28 -9 -70 -80 -122
-155 -116 -166 4 -6 3 -8 -4 -4 -14 9 -26 -13 -27 -49 0 -19 -6 -31 -16 -33
-9 -2 -59 26 -111 61 -51 35 -144 88 -206 118 -61 30 -112 57 -112 62 0 4 10
12 23 18 21 9 52 60 52 84 0 6 6 16 13 24 8 8 11 22 9 33 -3 10 -1 16 4 12 8
-5 13 9 10 28 0 3 8 32 19 64 26 73 25 74 -9 61 -25 -9 -48 -5 -148 26 -65 20
-160 45 -212 55 -72 14 -99 24 -113 41 -23 29 -22 31 -48 -148 -19 -135 -19
-145 -4 -163 10 -10 15 -21 11 -24 -4 -5 -449 -9 -501 -5 -5 1 -1 10 9 21 17
19 17 25 1 147 -10 71 -20 143 -24 161 l-7 34 -24 -26z m559 -641 c103 -20
110 -24 76 -42 -19 -10 -31 -11 -45 -3 -13 7 -22 7 -26 0 -3 -5 -2 -10 3 -10
18 0 43 -50 37 -71 -10 -30 -28 -18 -42 27 l-13 39 3 -34 c1 -22 -3 -36 -12
-39 -9 -3 -11 0 -6 8 5 9 2 10 -13 6 -12 -4 -23 -2 -28 5 -4 7 -3 10 2 7 5 -3
17 5 27 18 17 23 17 24 -1 24 -10 0 -24 -6 -31 -12 -10 -11 -12 -10 -9 2 2 10
-4 15 -19 14 -13 0 -21 2 -18 4 3 3 -5 12 -16 20 -19 13 -23 13 -37 -3 -16
-17 -16 -17 1 -12 11 4 16 3 12 -3 -3 -6 -22 -10 -41 -10 -19 0 -34 -4 -34 -8
0 -5 -12 -7 -27 -5 -16 2 -45 -2 -66 -9 l-39 -14 75 1 c55 0 73 3 70 13 -3 6
-1 12 5 12 6 0 12 -5 14 -11 3 -9 10 -8 25 1 11 7 28 10 38 6 17 -6 17 -7 0
-20 -22 -16 -220 -22 -230 -7 -3 6 -11 11 -16 11 -6 0 -8 -4 -5 -9 3 -5 -22
-8 -57 -7 -45 1 -61 -2 -59 -11 3 -18 -15 -16 -22 2 -6 16 12 28 35 24 8 -1
21 1 29 4 8 3 29 8 45 10 27 4 28 5 8 12 -32 11 -38 35 -8 35 14 0 25 5 25 11
0 12 -106 7 -118 -6 -9 -9 19 -24 33 -19 7 3 15 -1 17 -8 4 -9 -6 -13 -36 -13
-22 0 -44 4 -47 9 -4 4 -17 2 -30 -5 -23 -12 -23 -11 -9 6 13 16 13 18 0 13
-8 -2 -16 -12 -18 -21 -3 -16 12 -21 56 -20 23 1 12 -12 -19 -24 -17 -7 -28
-16 -25 -21 3 -6 0 -12 -8 -15 -8 -3 -17 0 -20 8 -2 7 2 16 10 19 12 4 12 10
4 26 -6 11 -15 20 -21 20 -6 0 -7 -5 -3 -12 4 -7 3 -8 -5 -4 -6 4 -14 0 -17
-9 -5 -13 -8 -14 -15 -3 -6 9 2 18 24 30 20 11 25 17 15 18 -9 0 -20 -5 -23
-10 -4 -6 -11 -8 -16 -5 -5 4 -9 1 -9 -4 0 -6 -11 -11 -24 -11 -13 0 -38 -6
-56 -14 l-32 -13 28 -8 29 -7 -25 -11 c-14 -5 -49 -11 -77 -11 -29 -1 -58 -7
-65 -14 -9 -9 -9 -12 2 -12 11 0 11 -3 2 -12 -10 -10 -14 -10 -21 0 -12 20
-135 -54 -126 -75 4 -13 3 -14 -10 -3 -13 11 -19 8 -17 -11 1 -3 -12 -3 -29
-1 -16 2 -29 6 -29 8 0 1 38 28 84 58 164 109 375 191 561 216 50 6 97 13 105
15 35 9 292 -5 370 -20z m-91 -104 c-15 -5 -22 6 -14 19 6 9 10 9 16 -1 5 -8
4 -15 -2 -18z m462 -22 c105 -52 220 -129 213 -141 -3 -5 -12 -7 -20 -4 -8 3
-17 -1 -20 -9 -4 -8 -11 -12 -17 -8 -6 4 -8 0 -4 -9 8 -22 -2 -29 -24 -17 -13
6 -19 6 -19 0 0 -6 -8 -7 -17 -4 -15 6 -15 7 2 13 13 5 15 9 7 14 -7 4 -12 12
-12 17 0 6 8 3 18 -7 15 -16 17 -16 20 -1 2 10 10 14 20 11 13 -5 14 -4 4 4
-8 5 -13 13 -12 18 3 9 -30 31 -98 65 -23 12 -45 25 -48 30 -3 5 -10 9 -15 9
-6 0 -7 -6 -3 -12 6 -10 5 -10 -8 0 -12 10 -18 10 -27 -2 -15 -18 5 -27 36
-15 15 6 26 3 38 -11 16 -17 15 -18 -19 -10 -20 4 -36 5 -36 1 0 -4 -9 -7 -20
-7 -19 0 -25 9 -21 29 1 5 -3 6 -8 2 -6 -3 -8 -11 -5 -19 3 -7 -7 -18 -21 -24
-14 -6 -25 -9 -25 -7 0 10 52 135 56 135 3 0 41 -18 85 -41z m-1041 14 c38
-17 50 -35 31 -48 -5 -3 -12 3 -14 12 -3 13 -5 12 -6 -5 0 -13 -5 -21 -10 -18
-10 7 -71 -16 -71 -26 0 -4 -9 -8 -19 -8 -11 0 -26 -6 -34 -14 -10 -11 -17
-12 -25 -4 -14 14 -42 -7 -42 -31 0 -13 -2 -14 -9 -1 -6 8 -8 17 -6 20 2 3
-12 5 -30 4 -27 -2 -32 1 -28 17 3 10 10 19 15 19 5 0 6 -4 3 -10 -11 -18 11
-11 30 10 10 11 23 17 29 13 6 -4 5 1 -3 10 -12 15 -12 17 3 11 21 -8 21 -31
-1 -38 -10 -2 0 -2 22 1 66 8 80 14 64 25 -10 6 -2 8 23 6 25 -3 35 -1 28 6
-17 17 -11 29 8 15 14 -11 15 -11 5 1 -13 14 -18 50 -8 50 3 0 23 -8 45 -17z
m140 -7 c0 -2 -9 -6 -20 -9 -11 -3 -18 -1 -14 4 5 9 34 13 34 5z m984 -111
c-4 -8 -10 -15 -15 -15 -13 0 -11 18 4 24 6 3 -1 3 -18 -1 -37 -7 -45 -11 -45
-24 0 -5 9 -9 20 -9 25 0 27 -25 2 -27 -11 -1 -23 10 -31 27 -17 40 -15 45 19
42 17 -2 30 1 30 8 0 8 6 8 20 0 11 -6 17 -16 14 -25z m-1404 5 c0 -11 -4 -20
-9 -20 -5 0 -7 9 -4 20 3 11 7 20 9 20 2 0 4 -9 4 -20z m1244 5 c3 -8 1 -15
-4 -15 -6 0 -10 7 -10 15 0 8 2 15 4 15 2 0 6 -7 10 -15z m31 -3 c-3 -3 -11 0
-18 7 -9 10 -8 11 6 5 10 -3 15 -9 12 -12z m-1145 -6 c0 -2 -7 -7 -16 -10 -8
-3 -12 -2 -9 4 6 10 25 14 25 6z m-164 -21 c-4 -10 1 -15 16 -15 12 0 18 -3
14 -7 -10 -11 -36 -12 -36 -2 0 5 -6 9 -14 9 -8 0 -17 4 -20 9 -4 5 4 7 16 3
14 -3 19 -2 14 6 -4 7 -2 12 4 12 7 0 10 -7 6 -15z m1335 -2 c13 -17 13 -17
-6 -3 -11 8 -22 16 -24 17 -2 2 0 3 6 3 6 0 17 -8 24 -17z m159 8 c2 -1 -1 -6
-7 -12 -9 -9 -16 -8 -28 5 -15 15 -15 16 7 12 13 -3 25 -5 28 -5z m-1421 -19
c8 -15 4 -22 -22 -38 -37 -22 -78 -28 -74 -11 1 6 -7 13 -18 15 -17 4 -16 0 7
-21 24 -22 25 -26 9 -24 -11 1 -18 4 -15 8 2 4 -6 15 -18 23 -16 12 -18 16 -7
20 8 2 22 7 32 10 11 3 17 0 17 -9 0 -11 5 -12 26 -5 14 6 29 8 33 5 5 -2 6 7
3 20 -5 29 13 34 27 7z m1357 -17 c-4 -24 -16 -30 -16 -7 0 12 4 22 9 22 5 0
8 -7 7 -15z m-1098 -186 c26 -58 29 -70 14 -64 -27 11 -62 14 -62 5 0 -5 6
-10 13 -13 6 -3 -2 -5 -19 -4 -41 0 -41 32 -1 32 46 1 29 18 -20 21 -39 3 -45
1 -33 -9 8 -6 14 -23 12 -36 -2 -13 2 -28 10 -33 8 -5 3 -6 -14 -2 -18 4 -28
2 -28 -6 0 -6 5 -8 12 -4 7 5 8 3 3 -5 -5 -10 -10 -10 -19 -1 -8 8 -6 15 8 26
21 15 17 17 -24 14 -35 -2 -55 -23 -42 -45 6 -12 11 -14 16 -6 4 6 1 11 -6 11
-9 0 -9 3 2 10 24 15 39 -8 17 -25 -23 -16 -43 -10 -50 14 -5 22 11 54 24 46
5 -4 9 -2 9 3 0 16 30 23 52 11 16 -8 19 -8 16 2 -2 7 -12 13 -22 15 -10 1
-21 6 -24 10 -4 4 -1 5 7 2 8 -2 23 4 33 14 10 10 23 16 28 13 6 -4 10 0 11 7
0 10 2 10 6 0 2 -6 10 -9 15 -6 7 5 8 2 3 -6 -5 -9 -4 -11 3 -6 7 4 12 17 11
29 0 12 -3 16 -6 9 -2 -6 -9 -10 -13 -7 -13 8 -104 -40 -133 -69 -14 -14 -27
-23 -30 -20 -7 8 -117 -98 -111 -108 8 -13 42 15 37 31 -4 14 -3 14 7 1 10
-13 11 -12 6 3 -5 15 -2 17 14 12 12 -4 20 -2 20 5 0 6 -4 8 -10 5 -5 -3 -10
-1 -10 4 0 6 7 11 15 11 7 0 18 8 23 17 8 13 9 9 7 -18 -2 -24 -8 -35 -21 -38
-11 -2 -27 -12 -37 -22 -17 -18 -17 -19 2 -19 11 0 23 5 26 10 8 13 35 13 35
0 0 -5 -7 -6 -17 -3 -10 4 -14 2 -9 -5 3 -6 2 -13 -4 -17 -6 -4 -8 -10 -5 -15
3 -5 1 -12 -5 -15 -6 -4 -9 -1 -8 7 2 7 -4 13 -12 13 -8 1 -25 6 -37 13 -28
15 -30 15 -37 -4 -4 -11 -2 -15 7 -11 8 3 14 -1 14 -9 0 -21 -31 -12 -39 11
-5 17 -6 15 -7 -7 -1 -16 4 -28 10 -28 12 0 38 -29 39 -42 0 -5 -4 -8 -10 -8
-5 0 -10 6 -10 14 0 18 -27 29 -36 14 -5 -7 -2 -8 7 -3 11 6 11 5 2 -5 -9 -10
-8 -16 7 -29 16 -13 17 -18 5 -28 -10 -10 -14 -9 -19 2 -3 8 0 15 7 15 6 0 1
7 -11 16 -18 12 -20 19 -11 35 17 33 0 37 -27 6 -31 -36 -30 -53 4 -69 26 -13
28 -21 18 -67 -4 -21 -21 -24 -47 -11 -12 7 -19 8 -15 2 3 -6 1 -14 -5 -17 -7
-5 -9 1 -7 16 2 15 -2 23 -9 22 -8 -2 -10 4 -7 15 5 14 4 14 -4 3 -7 -9 -7
-21 -2 -31 6 -12 5 -17 -5 -17 -8 0 -12 4 -9 9 3 4 1 8 -4 8 -15 0 -22 -42
-10 -57 15 -18 28 -16 27 5 0 10 -3 12 -6 4 -2 -6 -9 -10 -14 -6 -15 9 -10 20
11 21 19 2 27 -19 21 -51 -1 -5 5 -4 14 4 12 10 13 16 3 28 -11 13 -10 15 5 9
10 -4 16 -3 12 2 -3 5 -1 12 4 15 21 13 22 -17 1 -39 -12 -13 -19 -28 -15 -35
4 -6 1 -9 -7 -8 -9 2 -14 -10 -16 -36 -4 -41 -32 -98 -32 -63 0 9 5 17 10 17
6 0 10 23 9 55 -2 56 -6 64 -27 43 -8 -8 -15 -8 -27 2 -10 8 -15 9 -15 1 0 -6
5 -11 10 -11 6 0 10 -7 10 -15 0 -9 6 -12 17 -8 13 5 15 2 10 -18 -4 -13 -7
-34 -7 -47 0 -20 -2 -21 -20 -10 -16 11 -17 14 -5 21 14 7 13 12 -2 37 -9 16
-20 27 -24 24 -5 -3 1 -14 13 -26 16 -16 18 -23 9 -26 -7 -2 -16 1 -20 7 -5 7
-11 3 -18 -11 -21 -44 -22 -57 -5 -67 16 -10 16 -10 0 -11 -10 0 -17 -3 -16
-7 1 -5 -4 -21 -10 -36 -7 -16 -12 -33 -12 -38 0 -5 -4 -9 -10 -9 -16 0 -2
103 26 180 92 258 261 453 514 594 36 20 68 36 71 36 3 0 20 -32 37 -71z
m1064 -77 c85 -68 163 -151 219 -233 21 -32 39 -59 39 -61 0 -2 -15 -4 -33 -5
-64 -3 -87 -8 -87 -18 -1 -5 -7 1 -15 15 -7 14 -17 24 -22 23 -4 -1 -7 10 -5
25 2 20 0 23 -7 13 -8 -12 -12 -13 -25 -2 -13 11 -14 16 -4 29 8 10 9 13 2 9
-7 -4 -15 0 -18 9 -5 12 -2 15 10 10 14 -5 15 -4 5 8 -10 11 -19 13 -39 5 -23
-8 -25 -7 -11 4 15 11 15 15 3 32 -8 10 -14 14 -14 7 0 -6 -7 -9 -17 -5 -12 5
-14 3 -8 -8 4 -8 5 -11 0 -7 -4 4 -13 18 -20 30 -6 13 -18 22 -27 22 -10 -1
-14 4 -12 11 3 7 18 12 34 11 21 -2 27 2 22 14 -5 13 -3 13 11 1 19 -15 12
-35 -9 -27 -7 3 -16 1 -19 -4 -4 -6 3 -10 15 -10 12 0 18 -4 15 -10 -3 -5 0
-7 9 -4 8 3 19 -3 26 -15 6 -12 18 -21 27 -21 12 0 7 8 -15 28 -37 33 -42 48
-9 30 12 -7 25 -11 29 -10 4 1 4 -6 1 -15 -5 -12 -2 -15 9 -10 22 8 29 -2 17
-24 -8 -15 -6 -17 7 -12 14 5 15 3 6 -13 -8 -14 -7 -23 4 -35 8 -9 17 -27 19
-39 6 -31 21 -45 30 -29 5 8 4 10 -3 5 -7 -4 -12 -5 -12 -2 0 3 9 10 19 16 17
9 19 7 16 -10 -2 -11 1 -20 7 -20 6 0 8 12 4 30 -4 22 -2 29 6 24 6 -4 -2 9
-18 29 -29 37 -44 46 -44 26 0 -5 6 -7 13 -3 9 6 9 4 -1 -8 -10 -13 -9 -16 8
-21 11 -3 20 -11 19 -19 0 -10 -2 -10 -6 0 -2 6 -11 12 -18 12 -23 0 -39 38
-23 58 8 10 8 13 1 9 -7 -5 -13 1 -15 15 -2 13 -16 29 -33 38 -16 8 -32 18
-33 23 -2 4 -9 4 -15 0 -6 -4 -8 0 -4 10 4 12 -7 27 -40 52 -41 31 -47 33 -58
18 -11 -14 -12 -13 -11 7 1 14 -5 24 -17 26 -9 1 -15 -2 -11 -7 3 -5 0 -9 -6
-9 -6 0 1 -11 16 -25 24 -22 29 -24 36 -10 5 8 14 15 20 15 9 0 9 -3 0 -12 -7
-7 -12 -21 -13 -32 0 -12 -3 -15 -6 -8 -4 10 -8 10 -21 0 -12 -10 -16 -10 -19
0 -3 6 -9 10 -13 7 -5 -3 -12 -1 -15 5 -4 6 -3 10 2 9 17 -3 24 1 18 11 -4 7
-14 5 -28 -5 -40 -28 -49 -18 -26 28 44 85 47 88 79 72 15 -8 61 -41 102 -73z
m-102 12 c0 -8 -5 -12 -10 -9 -6 4 -8 11 -5 16 9 14 15 11 15 -7z m64 -58 c-6
-16 -8 -17 -16 -2 -11 19 0 42 13 29 6 -6 7 -18 3 -27z m638 -193 c56 -120 63
-140 86 -228 19 -76 22 -162 7 -157 -6 1 -11 21 -11 45 -2 45 -31 144 -45 153
-5 3 -9 11 -9 17 0 7 4 6 10 -3 13 -20 13 -4 0 21 -16 29 -26 23 -27 -16 -1
-25 4 -36 18 -40 10 -4 19 -15 19 -26 0 -16 -2 -18 -14 -7 -8 7 -12 16 -9 21
2 4 -1 7 -6 7 -14 0 -14 -23 -1 -36 6 -6 3 -27 -10 -59 -10 -28 -20 -48 -20
-45 -7 28 -7 39 1 34 5 -3 9 3 9 13 0 11 5 24 12 31 7 7 9 12 6 12 -4 0 -14
-7 -22 -16 -15 -14 -16 -14 -16 0 0 9 4 16 9 16 5 0 9 22 8 50 0 27 -4 47 -9
44 -5 -3 -8 -11 -7 -17 3 -29 -2 -44 -16 -44 -11 0 -13 7 -8 25 4 16 2 23 -5
18 -6 -4 -8 2 -4 16 3 14 1 19 -6 14 -8 -5 -10 -2 -6 8 4 9 1 16 -6 16 -8 0
-10 9 -6 24 5 19 0 29 -16 40 -19 14 -20 18 -9 42 10 23 9 26 -4 21 -8 -4 -15
-2 -15 3 0 6 -3 9 -7 9 -23 -4 -44 2 -41 11 3 9 105 77 119 79 3 1 26 -43 51
-96z m-1962 47 c0 -5 -2 -10 -4 -10 -3 0 -8 5 -11 10 -3 6 -1 10 4 10 6 0 11
-4 11 -10z m-532 -152 c57 -23 65 -34 27 -44 -14 -3 -22 -10 -19 -15 3 -5 0
-9 -5 -9 -6 0 -11 -11 -11 -24 0 -14 -5 -28 -12 -32 -7 -4 -8 -3 -4 4 5 8 2
10 -8 6 -9 -3 -13 -10 -10 -15 3 -5 -6 -4 -20 3 -40 18 -33 38 11 31 26 -4 34
-3 29 5 -4 7 -14 12 -22 12 -17 0 -19 27 -2 32 15 5 3 38 -15 38 -8 0 -13 -9
-12 -22 3 -30 -5 -49 -16 -42 -5 3 -9 -6 -9 -20 0 -16 -6 -26 -15 -26 -20 0
-19 14 6 89 17 50 25 61 38 56 9 -4 40 -16 69 -27z m239 -190 c-3 -8 -6 -5 -6
6 -1 11 2 17 5 13 3 -3 4 -12 1 -19z m64 -46 c-7 -2 -18 1 -23 6 -8 8 -4 9 13
5 13 -4 18 -8 10 -11z m1969 -69 c-1 -43 1 -88 3 -100 4 -15 1 -23 -8 -23 -8
0 -14 16 -16 44 -2 25 0 42 5 38 5 -3 6 2 3 12 -4 10 -7 22 -7 27 0 5 -4 9 -8
9 -10 0 -12 -17 -12 -72 1 -30 -3 -38 -17 -38 -10 0 -14 -3 -8 -8 12 -8 14
-86 3 -98 -5 -4 -8 -14 -8 -23 0 -11 4 -10 15 6 9 14 22 19 34 16 14 -4 21 1
24 19 4 21 4 20 6 -4 1 -25 -2 -28 -30 -28 -30 0 -31 -1 -25 -32 3 -18 10 -34
15 -38 12 -8 22 -100 11 -100 -5 0 -7 6 -4 13 3 8 -2 20 -11 27 -8 7 -15 23
-15 36 0 12 -4 25 -9 29 -5 3 -13 20 -17 38 -7 31 -8 32 -15 7 -6 -21 -7 -22
-8 -4 -1 11 5 29 13 39 10 14 11 25 5 37 -7 12 -6 18 2 18 8 0 9 4 0 13 -6 8
-8 17 -5 20 4 3 3 23 -1 44 -8 36 -8 37 -15 13 -8 -23 -8 -23 -9 8 -1 36 20
41 31 7 6 -19 6 -18 7 3 1 12 6 22 11 22 6 0 10 10 10 22 0 21 -1 21 -14 3
-13 -18 -14 -18 -50 4 -20 13 -36 26 -36 30 0 7 105 37 138 40 10 1 13 -18 12
-76z m239 -19 c0 -54 -1 -95 -3 -93 -12 12 -13 189 -1 189 1 0 3 -43 4 -96z
m-2209 61 c0 -8 -2 -15 -4 -15 -2 0 -6 7 -10 15 -3 8 -1 15 4 15 6 0 10 -7 10
-15z m-56 -36 c-3 -5 -9 -7 -13 -5 -4 3 -8 -1 -8 -9 0 -8 4 -12 9 -9 13 8 49
-6 43 -17 -4 -5 -14 -9 -23 -9 -15 0 -15 2 -2 10 11 8 8 10 -15 8 -23 -2 -29
1 -26 12 2 8 4 20 4 26 0 6 9 9 19 6 10 -2 15 -8 12 -13z m43 5 c-3 -3 -12 -4
-19 -1 -8 3 -5 6 6 6 11 1 17 -2 13 -5z m2310 -41 c-3 -10 -5 -4 -5 12 0 17 2
24 5 18 2 -7 2 -21 0 -30z m-2627 -15 c0 -5 -7 -11 -15 -14 -8 -4 -13 -10 -10
-14 3 -5 2 -15 -1 -24 -5 -13 -8 -13 -20 -2 -7 8 -22 12 -33 9 -25 -6 -38 15
-14 24 14 6 10 9 -17 13 -20 3 -36 11 -38 20 -2 14 7 15 73 6 41 -5 75 -13 75
-18z m2557 -45 c-3 -10 -5 -2 -5 17 0 19 2 27 5 18 2 -10 2 -26 0 -35z m-2654
-25 c12 -6 23 -11 25 -10 11 8 20 -3 24 -29 3 -21 0 -33 -12 -39 -10 -5 -20
-22 -23 -38 -3 -16 -13 -36 -21 -44 -8 -8 -16 -26 -19 -39 -3 -15 -5 -8 -6 19
-1 27 3 42 12 42 7 0 8 3 2 8 -5 4 -11 23 -12 42 0 19 1 27 4 18 8 -30 33 -8
33 28 0 27 -4 34 -19 34 -26 0 -32 11 -23 41 7 24 7 24 10 1 2 -12 13 -27 25
-34z m2727 -19 c0 -16 -5 -29 -11 -29 -6 0 -9 -7 -5 -15 3 -8 1 -15 -5 -15 -6
0 -9 -7 -5 -15 3 -8 1 -15 -4 -15 -6 0 -10 -13 -10 -30 0 -58 -18 -29 -25 40
-4 39 -11 70 -16 70 -18 0 -8 16 11 17 16 1 20 -4 20 -33 0 -22 4 -33 11 -29
6 4 8 14 5 22 -3 8 -1 11 4 8 6 -4 10 9 10 30 0 22 4 34 10 30 6 -3 10 -19 10
-36z m-2661 -106 c-1 -21 -4 -49 -9 -63 -5 -18 -8 -7 -8 38 0 34 4 62 9 62 5
0 9 -17 8 -37z m2572 -109 c-13 -67 -2 -94 35 -94 14 0 23 4 20 9 -3 5 1 12 9
15 12 4 14 0 11 -19 -6 -33 -15 -47 -27 -40 -5 3 -25 8 -44 9 -24 3 -35 0 -35
-10 0 -7 -10 -18 -21 -25 -19 -10 -21 -9 -16 7 10 37 42 119 48 124 3 3 6 30
8 60 1 30 5 64 9 75 12 35 14 -48 3 -111z m-241 101 c0 -9 -6 -12 -15 -9 -8 4
-12 10 -9 15 8 14 24 10 24 -6z m328 -69 l-1 -31 -4 33 c-2 17 -8 32 -14 32
-5 0 -9 5 -9 11 0 8 5 8 15 -1 8 -7 14 -26 13 -44z m-417 -6 c-10 -8 -19 -29
-19 -45 0 -56 -2 -66 -12 -60 -5 3 -10 3 -10 -2 0 -4 -3 -19 -7 -33 -6 -23 -5
-24 10 -11 15 12 17 12 11 -3 -3 -9 -10 -16 -15 -16 -8 0 -39 -52 -39 -66 0
-4 9 3 20 16 13 15 20 18 20 9 0 -11 2 -11 9 -1 6 10 11 9 22 -4 12 -16 12
-17 -3 -12 -9 4 -24 0 -35 -8 -10 -9 -12 -13 -5 -9 6 3 12 1 12 -5 0 -6 4 -9
9 -5 5 3 12 1 16 -5 3 -5 -1 -10 -9 -10 -9 0 -16 -5 -16 -11 0 -5 4 -8 9 -4 6
3 15 -4 21 -16 9 -17 9 -20 0 -14 -9 5 -10 1 -6 -16 3 -13 3 -18 0 -11 -3 6
-10 10 -15 7 -5 -4 -6 0 -3 8 3 9 -4 22 -18 31 -13 9 -22 19 -20 21 11 22 -2
22 -19 1 -17 -22 -19 -29 -9 -42 7 -8 10 -17 6 -21 -3 -3 -6 0 -6 7 0 11 -3
11 -12 2 -10 -10 -7 -15 9 -27 24 -16 22 -41 -2 -43 -8 -1 -22 -3 -30 -4 -24
-2 -18 -16 15 -33 30 -16 40 -9 18 13 -9 9 -9 12 3 13 7 1 17 1 22 0 4 0 7 11
8 26 0 27 1 28 11 6 9 -19 6 -30 -17 -63 -15 -22 -34 -40 -42 -40 -8 0 -11 5
-8 10 3 6 3 15 -1 21 -4 8 -9 7 -15 -2 -7 -11 -9 -11 -9 -1 0 7 -4 11 -9 8 -4
-3 -7 6 -5 19 1 14 -2 23 -7 19 -5 -3 -7 -9 -4 -14 2 -4 -6 -10 -20 -12 -14
-3 -25 -4 -25 -2 0 2 16 29 36 59 38 60 104 193 104 210 0 22 67 185 73 179 4
-4 7 1 7 12 0 15 2 16 9 5 7 -10 4 -20 -8 -31z m86 18 c-3 -8 -6 -5 -6 6 -1
11 2 17 5 13 3 -3 4 -12 1 -19z m316 -38 c3 -11 1 -20 -4 -20 -5 0 -9 9 -9 20
0 11 2 20 4 20 2 0 6 -9 9 -20z m-2715 -20 c-5 -17 -7 -37 -4 -45 3 -8 1 -15
-4 -15 -13 0 -17 42 -6 68 14 33 27 27 14 -8z m77 20 c-3 -5 -1 -10 4 -10 6 0
11 -10 11 -22 0 -13 6 -35 14 -49 7 -14 19 -50 26 -80 15 -60 66 -191 104
-267 24 -48 25 -50 5 -45 -11 3 -25 16 -31 29 -10 21 -12 22 -23 7 -11 -14
-12 -14 -18 0 -3 8 0 21 8 27 11 9 7 23 -22 81 -19 39 -33 72 -30 75 3 3 -1
21 -9 40 -8 19 -14 36 -14 39 1 23 -15 54 -32 58 -12 4 -17 10 -13 17 6 9 10
9 16 -1 6 -9 8 -2 8 21 0 19 -3 29 -6 23 -9 -23 -23 -14 -23 15 0 21 2 24 10
12 7 -10 10 -11 10 -2 0 7 -7 15 -16 19 -13 5 -13 7 -2 14 18 12 31 11 23 -1z
m2289 -95 c-12 -9 -14 -14 -6 -15 7 0 10 -4 7 -10 -4 -6 -11 -5 -19 3 -9 7
-10 14 -4 18 7 4 6 9 -1 13 -6 4 -11 13 -11 19 0 7 8 3 16 -8 15 -19 15 -19 9
10 l-7 30 17 -23 c16 -22 16 -24 -1 -37z m-1898 -32 c11 -43 70 -170 102 -216
46 -69 46 -67 17 -67 -14 0 -24 4 -21 8 8 13 -39 66 -52 58 -7 -4 -12 -13 -12
-19 0 -7 4 -6 10 3 7 11 10 11 10 2 0 -7 5 -10 10 -7 6 3 10 1 10 -5 0 -7 -6
-10 -13 -7 -7 3 -21 -1 -31 -8 -15 -11 -15 -16 -5 -34 10 -14 17 -17 25 -10 7
6 11 16 8 23 -3 8 2 16 10 19 10 4 14 -1 14 -16 -4 -62 -48 -56 -85 11 -16 27
-16 35 -2 26 8 -5 8 -1 0 14 -16 30 -13 40 4 15 8 -12 12 -30 9 -40 -5 -12 -4
-15 4 -8 6 6 14 28 18 50 6 36 5 39 -9 27 -12 -11 -17 -11 -23 0 -4 7 -4 10 1
6 10 -10 38 19 30 32 -5 8 -11 7 -21 -1 -12 -10 -13 -8 -5 13 9 23 7 25 -10
21 -10 -3 -19 -1 -19 4 0 12 -38 14 -45 3 -10 -16 -36 1 -30 20 3 10 1 21 -5
25 -6 3 -7 11 -4 17 4 6 3 9 -2 5 -9 -5 -51 20 -43 26 7 6 113 35 131 36 11 1
20 -9 24 -26z m1854 17 c0 -5 -4 -10 -10 -10 -5 0 -10 5 -10 10 0 6 5 10 10
10 6 0 10 -4 10 -10z m-2303 -32 c-3 -8 -6 -5 -6 6 -1 11 2 17 5 13 3 -3 4
-12 1 -19z m2327 -39 c-4 -13 -7 -29 -6 -36 2 -6 -2 -14 -8 -18 -5 -3 -10 -3
-11 2 0 4 -2 18 -5 31 -3 15 1 22 12 22 12 0 15 6 11 21 -4 15 -3 19 5 11 6
-6 7 -20 2 -33z m326 31 c0 -5 8 -10 18 -13 9 -2 -4 -4 -30 -3 -27 1 -43 3
-38 4 6 2 8 7 6 10 -2 4 7 8 20 8 13 1 24 -2 24 -6z m-2600 -20 c0 -5 -7 -10
-15 -10 -8 0 -15 5 -15 10 0 6 7 10 15 10 8 0 15 -4 15 -10z m-30 -21 c0 -6
-4 -7 -10 -4 -5 3 -10 11 -10 16 0 6 5 7 10 4 6 -3 10 -11 10 -16z m35 -17
c-3 -3 -11 0 -18 7 -9 10 -8 11 6 5 10 -3 15 -9 12 -12z m-15 -34 c5 -13 9
-18 9 -12 1 18 29 12 34 -8 3 -11 1 -16 -6 -12 -7 4 0 -5 16 -18 26 -24 37
-46 17 -33 -5 3 -10 -3 -10 -14 0 -28 -14 -27 -27 2 -9 20 -10 18 -9 -13 1
-19 5 -38 10 -41 4 -4 3 -10 -3 -13 -16 -10 -32 38 -25 73 5 21 11 28 21 24
12 -5 11 0 -3 16 -15 17 -20 19 -22 7 -2 -8 -10 -12 -18 -9 -9 3 -12 12 -8 25
3 10 0 25 -6 33 -10 12 -9 15 4 15 9 0 21 -10 26 -22z m356 3 c-3 -5 2 -8 12
-7 14 1 17 -8 18 -54 0 -30 -3 -62 -7 -70 -8 -16 -9 -12 -10 53 -1 26 -2 27
-15 10 -13 -17 -14 -17 -8 0 3 9 1 17 -5 17 -6 0 -11 5 -11 11 0 5 4 8 9 5 4
-3 6 6 3 19 -2 15 0 25 7 25 7 0 10 -4 7 -9z m528 -80 c-11 -2 -28 10 -44 29
-43 52 -31 65 17 18 35 -34 40 -44 27 -47z m1286 39 c0 -5 -5 -10 -11 -10 -5
0 -7 5 -4 10 3 6 8 10 11 10 2 0 4 -4 4 -10z m-444 -29 c-4 -6 -17 -11 -28
-11 -21 0 -21 1 -3 20 19 21 44 13 31 -9z m-1676 -146 c0 -5 -5 -3 -10 5 -5 8
-10 20 -10 25 0 6 5 3 10 -5 5 -8 10 -19 10 -25z m45 5 c3 -6 -1 -7 -9 -4 -20
8 -21 -10 -1 -26 10 -8 15 -9 15 -2 0 19 37 34 43 18 4 -10 -1 -12 -16 -9 -18
4 -19 3 -7 -6 12 -9 13 -11 1 -11 -8 0 -23 -8 -34 -17 -19 -17 -19 -17 -12 6
5 16 4 21 -4 17 -7 -5 -11 2 -11 18 0 26 23 36 35 16z"/>
<path d="M5342 6781 c-11 -7 -10 -9 3 -14 9 -4 13 -3 10 3 -3 5 14 11 37 13
l43 4 -40 1 c-22 1 -46 -2 -53 -7z"/>
<path d="M5450 6779 c0 -5 9 -9 20 -9 11 0 20 2 20 4 0 2 -9 6 -20 9 -11 3
-20 1 -20 -4z"/>
<path d="M5533 6772 c3 -4 31 -8 64 -9 55 -1 56 -1 18 7 -51 11 -88 12 -82 2z"/>
<path d="M5298 6763 c7 -3 16 -2 19 1 4 3 -2 6 -13 5 -11 0 -14 -3 -6 -6z"/>
<path d="M5108 6753 c7 -3 16 -2 19 1 4 3 -2 6 -13 5 -11 0 -14 -3 -6 -6z"/>
<path d="M5428 6753 c7 -3 16 -2 19 1 4 3 -2 6 -13 5 -11 0 -14 -3 -6 -6z"/>
<path d="M5274 6738 c-4 -7 -3 -8 4 -4 7 4 12 3 12 -3 0 -6 7 -8 15 -5 8 4 15
10 15 15 0 13 -38 11 -46 -3z"/>
<path d="M5368 6733 c12 -2 30 -2 40 0 9 3 -1 5 -23 4 -22 0 -30 -2 -17 -4z"/>
<path d="M5670 6700 c0 -5 5 -10 11 -10 5 0 7 5 4 10 -3 6 -8 10 -11 10 -2 0
-4 -4 -4 -10z"/>
<path d="M4848 6673 c-28 -7 -21 -18 11 -18 22 0 27 3 19 13 -6 6 -11 11 -12
11 0 -1 -9 -3 -18 -6z"/>
<path d="M5946 6653 c-6 -14 -5 -15 5 -6 7 7 10 15 7 18 -3 3 -9 -2 -12 -12z"/>
<path d="M4537 6013 c-15 -14 -6 -59 13 -71 17 -10 21 -10 27 4 5 13 8 13 15
2 8 -10 9 -9 5 4 -3 9 -1 19 6 22 9 3 9 5 0 5 -6 1 -15 -3 -18 -9 -9 -15 -38
-12 -32 3 2 6 11 11 18 9 9 -2 7 4 -5 17 -22 24 -20 23 -29 14z"/>
<path d="M6263 5985 c0 -8 4 -12 9 -9 5 3 6 10 3 15 -9 13 -12 11 -12 -6z"/>
<path d="M6603 6063 c-17 -6 -17 -23 0 -23 8 0 14 7 14 15 0 8 -1 15 -1 14 -1
0 -7 -3 -13 -6z"/>
<path d="M6566 6041 c-4 -7 -5 -15 -2 -18 9 -9 19 4 14 18 -4 11 -6 11 -12 0z"/>
<path d="M6634 6017 c5 -14 2 -16 -13 -7 -16 8 -18 7 -14 -10 3 -11 9 -23 14
-26 5 -3 9 -10 9 -17 0 -6 -7 -1 -16 11 -28 40 -36 23 -11 -23 14 -24 23 -52
21 -62 -4 -14 1 -18 20 -18 15 0 26 6 26 13 0 6 5 12 10 12 6 0 10 8 10 18 0
13 -2 14 -9 4 -7 -11 -10 -10 -15 3 -9 26 -7 42 4 25 7 -10 10 -11 10 -2 0 7
-7 15 -15 18 -8 4 -15 16 -15 28 0 11 -5 28 -11 36 -9 13 -10 12 -5 -3z m8
-89 c-7 -7 -12 -8 -12 -2 0 14 12 26 19 19 2 -3 -1 -11 -7 -17z"/>
<path d="M6393 5635 c-18 -8 -33 -19 -33 -25 0 -15 17 -12 23 4 3 8 14 12 25
9 12 -3 19 1 19 11 0 9 -1 16 -1 16 -1 -1 -16 -7 -33 -15z"/>
<path d="M6387 5533 c-4 -3 -7 -11 -7 -17 0 -6 5 -5 12 2 6 6 9 14 7 17 -3 3
-9 2 -12 -2z"/>
<path d="M4070 5529 c-12 -9 -12 -10 4 -5 10 4 25 1 34 -6 13 -11 14 -10 10 2
-6 19 -29 23 -48 9z"/>
<path d="M6217 4916 c-4 -11 -6 -21 -4 -23 7 -6 37 9 37 19 0 5 -4 7 -9 4 -5
-4 -11 -1 -13 6 -3 7 -7 5 -11 -6z"/>
<path d="M4450 5115 c-19 -7 -27 -14 -17 -14 10 -1 17 -9 17 -20 0 -10 8 -21
18 -24 9 -2 25 -8 35 -12 10 -4 17 -3 17 4 0 6 -9 11 -20 11 -11 0 -20 7 -20
15 0 8 5 15 12 15 6 0 8 3 4 7 -4 5 -14 -1 -22 -11 -12 -17 -14 -17 -14 -3 0
9 10 23 22 31 27 19 16 19 -32 1z"/>
<path d="M5870 5108 c0 -7 -32 -44 -71 -82 -51 -49 -68 -71 -60 -79 8 -8 26 5
65 45 60 62 92 113 76 123 -6 3 -10 0 -10 -7z"/>
<path d="M4925 5081 c8 -16 36 -53 63 -82 35 -38 53 -51 66 -46 13 5 2 21 -58
82 -41 41 -77 75 -80 75 -4 0 0 -13 9 -29z"/>
<path d="M5017 4395 c-74 -74 -142 -135 -151 -135 -18 0 -30 -33 -22 -63 3
-12 70 -86 149 -165 114 -113 149 -142 171 -142 51 0 102 81 61 96 -8 4 -12
11 -8 17 3 5 2 7 -4 4 -13 -8 -186 167 -176 178 4 4 2 5 -5 1 -7 -4 -15 -1
-18 9 -5 12 28 51 115 139 66 68 121 131 121 140 0 35 -18 52 -58 54 -37 3
-43 -2 -175 -133z"/>
<path d="M5543 4520 c-16 -7 -23 -18 -23 -37 0 -21 26 -53 120 -148 66 -67
120 -126 120 -131 0 -13 -79 -90 -88 -86 -4 1 -7 -4 -7 -10 -1 -7 -7 -12 -14
-10 -7 1 -10 -1 -7 -6 6 -10 -71 -86 -96 -95 -26 -9 -23 -59 5 -85 45 -42 62
-33 218 126 81 81 149 155 153 165 7 22 -9 57 -27 57 -7 0 -73 61 -146 135
-139 141 -151 148 -208 125z"/>
<path d="M5337 4296 c-37 -16 -47 -33 -47 -78 0 -48 39 -95 87 -104 111 -21
181 130 83 178 -41 20 -84 21 -123 4z"/>
<path d="M5143 3696 c-3 -5 2 -13 11 -18 15 -8 17 -20 12 -71 -3 -34 -3 -55 0
-46 11 35 48 42 235 43 l181 1 24 -28 c13 -15 24 -40 24 -54 0 -15 2 -24 5
-21 3 3 2 39 -3 79 -8 62 -7 77 6 92 8 9 13 20 10 23 -10 9 -500 10 -505 0z"/>
<path d="M5152 3510 c0 -19 2 -27 5 -17 2 9 2 25 0 35 -3 9 -5 1 -5 -18z"/>
<path d="M4632 3490 c-22 -9 -22 -10 -5 -37 10 -16 25 -34 33 -40 44 -36 289
-104 381 -107 57 -1 99 20 99 48 0 6 -4 5 -9 -2 -6 -11 -12 -8 -27 11 -15 19
-37 28 -106 41 -48 9 -138 32 -200 52 -62 19 -120 37 -128 39 -8 2 -25 0 -38
-5z"/>
<path d="M6065 3473 c-84 -28 -242 -69 -307 -78 -30 -5 -54 -16 -70 -32 l-23
-25 24 -19 c13 -10 35 -19 48 -19 53 0 318 68 381 97 28 13 71 69 60 78 -25
21 -48 21 -113 -2z"/>
<path d="M5642 3455 c0 -16 2 -22 5 -12 2 9 2 23 0 30 -3 6 -5 -1 -5 -18z"/>
<path d="M7905 7510 c-3 -6 1 -7 9 -4 18 7 21 14 7 14 -6 0 -13 -4 -16 -10z"/>
<path d="M8322 5398 l3 -463 285 0 285 0 3 463 2 462 -290 0 -290 0 2 -462z
m538 73 c0 -203 3 -376 6 -385 6 -14 -21 -16 -256 -16 -235 0 -262 2 -256 16
3 9 6 182 6 385 l0 369 250 0 250 0 0 -369z"/>
<path d="M8400 5728 l0 -48 50 0 50 0 0 48 0 47 -50 0 -50 0 0 -47z m80 2 c0
-27 -3 -30 -30 -30 -27 0 -30 3 -30 30 0 27 3 30 30 30 27 0 30 -3 30 -30z"/>
<path d="M8713 5763 c-2 -6 -3 -26 -1 -45 3 -32 4 -33 56 -36 l52 -3 0 48 0
48 -51 0 c-30 0 -53 -5 -56 -12z m79 -33 c4 -28 2 -30 -27 -30 -29 0 -31 2
-27 30 3 23 9 30 27 30 18 0 24 -7 27 -30z"/>
<path d="M8550 5724 l0 -45 53 3 52 3 3 43 3 42 -55 0 -56 0 0 -46z m82 6 c4
-28 2 -30 -27 -30 -29 0 -31 2 -27 30 3 23 9 30 27 30 18 0 24 -7 27 -30z"/>
<path d="M8402 5573 l3 -48 45 0 45 0 3 48 3 47 -51 0 -51 0 3 -47z m78 -3 c0
-27 -3 -30 -30 -30 -27 0 -30 3 -30 30 0 27 3 30 30 30 27 0 30 -3 30 -30z"/>
<path d="M8550 5575 c0 -39 3 -45 24 -51 13 -3 37 -4 52 -2 27 3 29 6 32 51
l3 47 -55 0 -56 0 0 -45z m80 -5 c0 -26 -4 -30 -28 -30 -26 0 -28 3 -24 30 3
24 9 30 28 30 20 0 24 -5 24 -30z"/>
<path d="M8712 5573 l3 -48 50 0 50 0 3 48 3 47 -56 0 -56 0 3 -47z m80 -3 c4
-27 2 -30 -24 -30 -24 0 -28 4 -28 30 0 25 4 30 24 30 19 0 25 -6 28 -30z"/>
<path d="M8400 5415 l0 -45 50 0 50 0 0 45 0 45 -50 0 -50 0 0 -45z m80 -1 c0
-33 -2 -35 -27 -32 -47 5 -45 68 2 68 22 0 25 -4 25 -36z"/>
<path d="M8560 5415 l0 -45 50 0 50 0 0 45 0 45 -50 0 -50 0 0 -45z m80 0 c0
-32 -2 -35 -30 -35 -28 0 -30 3 -30 35 0 32 2 35 30 35 28 0 30 -3 30 -35z"/>
<path d="M8712 5418 l3 -43 53 -3 52 -3 0 45 0 46 -56 0 -55 0 3 -42z m80 2
c5 -36 2 -40 -29 -40 -20 0 -23 5 -23 35 0 30 3 35 24 35 19 0 25 -6 28 -30z"/>
<path d="M8402 5263 l3 -48 48 -3 47 -3 0 50 0 51 -51 0 -50 0 3 -47z m78 -3
c0 -27 -3 -30 -30 -30 -27 0 -30 3 -30 30 0 27 3 30 30 30 27 0 30 -3 30 -30z"/>
<path d="M8560 5260 l0 -50 50 0 50 0 0 50 0 50 -50 0 -50 0 0 -50z m80 0 c0
-27 -3 -30 -30 -30 -27 0 -30 3 -30 30 0 27 3 30 30 30 27 0 30 -3 30 -30z"/>
<path d="M8714 5296 c-3 -8 -4 -29 -2 -48 3 -33 4 -33 53 -33 l50 0 3 48 3 47
-51 0 c-34 0 -52 -5 -56 -14z m78 -36 c4 -27 2 -30 -24 -30 -24 0 -28 4 -28
30 0 25 4 30 24 30 19 0 25 -6 28 -30z"/>
<path d="M1812 5428 l3 -293 390 -3 c215 -1 400 0 413 3 l22 5 0 285 0 285
-405 0 c-223 -1 -410 2 -415 5 -7 4 -9 -95 -8 -287z m790 26 c2 -124 1 -228
-1 -230 -8 -7 -750 -4 -753 4 -2 4 -2 107 0 230 l3 222 374 0 374 0 3 -226z"/>
<path d="M2503 5595 c36 -35 57 -44 57 -25 0 6 -7 10 -15 10 -8 0 -15 7 -15
16 0 8 -5 12 -10 9 -6 -3 -13 1 -16 9 -3 9 -13 16 -22 16 -10 0 -2 -12 21 -35z"/>
<path d="M2082 5060 c3 -12 28 -16 141 -18 128 -2 145 1 135 24 -2 3 -65 6
-141 7 -117 2 -137 0 -135 -13z"/>
<path d="M2266 4518 c-25 -35 -19 -87 20 -200 246 -709 733 -1317 1374 -1717
177 -111 360 -201 407 -201 50 0 95 29 116 73 21 43 21 70 2 107 -16 31 -29
37 -40 20 -7 -12 -169 68 -310 153 -229 138 -441 304 -619 486 -89 91 -97 103
-85 118 12 16 12 17 -2 5 -13 -10 -19 -10 -29 2 -6 9 -9 20 -5 25 3 7 0 8 -9
5 -19 -7 -21 7 -3 26 10 12 9 12 -5 1 -16 -12 -22 -9 -19 12 0 4 -7 7 -16 7
-13 0 -14 3 -5 12 17 17 15 33 -3 18 -18 -15 -20 1 -2 19 10 11 8 11 -13 1
-23 -12 -24 -12 -11 3 14 17 8 32 -24 62 -6 6 -52 73 -102 151 -149 229 -263
460 -347 703 -41 118 -52 137 -72 120 -9 -7 -18 -7 -33 0 -11 6 -34 11 -51 11
-17 0 -40 -5 -51 -11 -15 -7 -24 -7 -34 1 -10 8 -17 6 -29 -12z"/>
<path d="M8375 4526 c-13 -9 -25 -11 -36 -5 -22 11 -32 -2 -54 -71 -86 -269
-254 -598 -429 -839 -55 -78 -72 -108 -65 -118 16 -18 1 -35 -24 -27 -20 6
-20 5 -8 -10 18 -22 6 -33 -16 -15 -16 13 -17 12 -5 -3 19 -23 -4 -60 -33 -52
-15 4 -17 3 -6 -5 12 -8 13 -12 1 -26 -9 -11 -16 -13 -24 -5 -5 5 -14 10 -20
10 -5 0 -1 -6 9 -14 17 -12 10 -22 -101 -132 -173 -172 -355 -315 -555 -439
-114 -71 -359 -196 -359 -184 0 5 -7 9 -15 9 -37 0 -47 -95 -16 -146 20 -33
75 -64 113 -64 14 0 69 22 124 49 759 372 1353 1033 1650 1836 52 142 62 212
32 241 -13 13 -20 14 -30 6 -10 -7 -18 -6 -32 4 -25 18 -77 18 -101 0z m-550
-1006 c3 -6 -1 -7 -9 -4 -18 7 -21 14 -7 14 6 0 13 -4 16 -10z"/>
<path d="M7765 3480 c3 -5 11 -10 16 -10 6 0 7 5 4 10 -3 6 -11 10 -16 10 -6
0 -7 -4 -4 -10z"/>
<path d="M5144 2551 c-61 -28 -96 -79 -96 -139 0 -83 47 -143 125 -159 l36 -8
-43 -65 -43 -65 60 -3 c40 -2 64 1 72 10 31 35 134 208 145 243 40 135 -117
249 -256 186z m121 -106 c29 -28 31 -42 9 -73 -16 -24 -53 -29 -85 -12 -28 15
-26 74 3 94 31 22 45 20 73 -9z"/>
<path d="M5542 2557 c-47 -18 -90 -63 -102 -108 -22 -79 27 -169 103 -191 23
-6 44 -13 46 -15 2 -1 -7 -20 -21 -40 -13 -21 -33 -50 -42 -65 l-18 -28 64 0
65 0 60 93 c84 128 93 148 93 211 0 45 -5 60 -27 87 -51 60 -143 84 -221 56z
m108 -105 c28 -22 30 -70 4 -89 -28 -20 -71 -16 -88 9 -22 31 -20 45 9 73 29
30 45 31 75 7z"/>
<path d="M4810 2532 c-51 -25 -55 -30 -58 -66 -5 -59 2 -70 35 -53 16 8 38 18
51 21 l22 7 0 -165 0 -166 60 0 60 0 0 225 0 225 -57 -1 c-42 0 -74 -8 -113
-27z"/>
<path d="M5873 2534 l-53 -25 0 -54 0 -54 46 19 c25 11 48 20 50 20 2 0 4 -74
4 -165 l0 -165 60 0 60 0 0 225 0 225 -57 -1 c-40 0 -75 -9 -110 -25z"/>
<path d="M7948 9142 c-36 -48 -104 -137 -151 -199 l-87 -111 48 -35 c28 -22
51 -32 57 -27 6 5 47 56 90 115 l80 105 7 -52 c4 -29 10 -115 14 -192 7 -137
7 -139 36 -165 17 -14 35 -26 41 -26 12 0 295 364 296 382 1 12 -71 73 -85 73
-5 -1 -47 -52 -94 -115 l-85 -114 -6 57 c-4 31 -10 119 -14 195 l-7 137 -37
29 -37 30 -66 -87z"/>
<path d="M2270 8816 c-63 -58 -115 -109 -115 -114 0 -9 270 -306 313 -346 21
-18 22 -18 137 89 63 60 115 111 115 114 0 4 -14 23 -31 44 l-31 37 -76 -70
-77 -69 -27 26 c-16 15 -28 32 -28 39 0 7 30 39 66 72 l66 59 -32 37 c-18 20
-35 36 -40 36 -4 0 -38 -28 -75 -62 l-68 -62 -23 28 c-13 15 -24 31 -24 36 0
5 29 35 65 66 36 32 65 63 65 69 0 6 -15 25 -33 43 l-33 32 -114 -104z"/>
<path d="M8515 8750 l-39 -40 42 -43 42 -42 -135 -128 c-74 -71 -135 -132
-135 -136 0 -4 18 -27 40 -52 l39 -44 103 101 c122 119 171 164 180 164 3 0
23 -19 42 -42 l37 -42 42 42 42 42 -130 130 -131 130 -39 -40z"/>
<path d="M1926 8464 c-33 -39 -36 -48 -25 -59 8 -8 91 -81 184 -164 l170 -150
33 32 c62 59 68 49 -129 223 -99 88 -184 160 -188 162 -3 1 -24 -18 -45 -44z"/>
<path d="M1727 8146 c-166 -46 -249 -259 -156 -399 88 -133 271 -157 388 -51
92 83 121 209 70 310 -13 27 -29 49 -36 49 -6 0 -26 -20 -43 -44 -30 -41 -31
-46 -20 -85 10 -35 9 -49 -5 -84 -41 -102 -154 -121 -234 -38 -81 83 -25 226
89 226 31 0 39 6 69 50 21 31 31 54 25 59 -17 17 -98 21 -147 7z"/>
<path d="M9115 7689 c-132 -21 -241 -38 -242 -38 -1 -1 12 -26 30 -56 33 -58
38 -60 117 -39 10 2 29 -21 58 -71 23 -41 42 -80 42 -87 0 -6 -14 -27 -31 -44
l-31 -32 32 -57 c26 -46 35 -54 45 -43 40 43 325 390 325 395 0 3 -14 30 -31
59 -23 41 -36 54 -52 53 -12 -1 -130 -19 -262 -40z m195 -86 c-1 -5 -25 -35
-54 -67 l-53 -59 -28 47 c-15 26 -24 50 -20 54 6 7 102 28 138 31 9 0 17 -2
17 -6z"/>
<path d="M1332 7559 c-92 -46 -142 -183 -98 -268 17 -32 80 -71 116 -71 39 0
89 29 154 89 69 65 85 71 111 45 35 -36 -16 -119 -68 -111 -26 3 -31 -1 -55
-50 -31 -63 -25 -73 46 -73 73 0 133 45 171 130 23 51 27 132 8 170 -19 37
-74 70 -119 70 -50 0 -82 -17 -138 -75 -25 -26 -57 -53 -72 -61 -25 -13 -29
-13 -48 6 -15 15 -19 28 -15 43 9 31 45 59 71 54 18 -3 26 6 48 50 l26 53 -26
10 c-38 15 -65 12 -112 -11z"/>
<path d="M9483 7220 c-53 -32 -67 -71 -65 -182 2 -99 -8 -128 -43 -128 -49 0
-75 104 -34 131 l21 14 -24 58 c-12 31 -26 57 -30 57 -19 0 -78 -65 -89 -97
-26 -79 19 -210 88 -258 72 -48 165 -23 206 55 15 29 17 50 13 122 -5 73 -3
89 12 108 23 28 54 21 70 -16 17 -35 15 -51 -8 -74 -19 -19 -19 -20 2 -70 22
-54 31 -59 66 -34 35 24 52 68 52 131 -1 147 -131 248 -237 183z"/>
<path d="M9673 6684 c-48 -24 -73 -71 -79 -151 -8 -91 -20 -130 -45 -136 -54
-14 -84 96 -35 128 24 16 24 16 9 73 -8 31 -16 58 -18 60 -8 9 -67 -32 -90
-62 -56 -73 -37 -212 39 -285 63 -61 164 -50 212 24 9 14 21 66 28 121 9 79
15 99 31 110 51 34 89 -54 44 -102 -19 -20 -19 -24 -6 -70 8 -27 21 -50 29
-52 25 -5 75 46 94 94 15 40 16 54 6 101 -28 133 -121 195 -219 147z"/>
<path d="M940 6368 c-31 -16 -52 -36 -68 -65 -25 -46 -68 -251 -55 -263 4 -4
107 -24 228 -44 121 -21 227 -40 236 -42 13 -3 19 8 28 52 6 32 11 61 11 64 0
4 -36 13 -80 20 -62 10 -80 16 -78 27 2 8 43 37 93 65 49 27 91 50 92 52 5 5
30 146 26 146 -3 0 -50 -25 -106 -56 -56 -31 -103 -52 -104 -48 -31 92 -137
136 -223 92z m98 -124 c16 -11 22 -25 22 -54 0 -65 -3 -68 -66 -56 l-56 10 5
40 c4 25 14 48 27 58 27 22 39 22 68 2z"/>
<path d="M9678 6126 c-128 -35 -207 -170 -179 -308 29 -139 145 -229 276 -215
169 17 271 179 221 351 -23 78 -91 148 -167 170 -62 19 -88 19 -151 2z m157
-140 c74 -49 74 -183 0 -232 -60 -39 -165 -23 -200 30 -26 39 -30 107 -10 149
33 69 143 97 210 53z"/>
<path d="M777 5693 c-4 -54 -7 -126 -7 -160 l0 -62 53 -5 c68 -8 431 -23 437
-19 6 6 20 315 14 325 -3 4 -27 8 -55 8 l-49 0 0 -77 c0 -116 -3 -123 -58
-123 l-45 0 6 95 6 95 -54 0 -55 0 0 -59 c0 -32 -3 -73 -6 -90 -6 -28 -10 -31
-46 -31 l-40 0 3 98 4 97 -51 3 -51 3 -6 -98z"/>
<path d="M9680 5417 c-19 -6 -58 -34 -86 -62 -81 -78 -104 -181 -64 -288 27
-71 106 -147 154 -147 13 0 16 12 16 59 0 54 -3 62 -35 94 -30 30 -35 42 -35
81 0 26 7 60 15 77 36 68 139 91 206 46 47 -32 61 -62 56 -127 -4 -49 -8 -57
-45 -90 -40 -34 -42 -38 -42 -93 0 -64 4 -66 65 -38 58 26 111 90 131 157 38
130 -19 264 -135 321 -43 21 -152 27 -201 10z"/>
<path d="M793 5253 c-16 -3 -23 -12 -23 -26 0 -26 22 -341 24 -344 0 -1 26 2
55 5 l55 7 -3 57 -2 57 33 5 c18 3 78 8 133 11 55 3 126 8 159 12 l59 6 -6 59
c-3 33 -7 61 -9 62 -1 2 -75 -3 -163 -10 -238 -19 -213 -24 -221 46 -7 59 -7
60 -38 59 -17 -1 -41 -4 -53 -6z"/>
<path d="M9477 4743 c-3 -5 -8 -31 -12 -60 -6 -49 -5 -52 17 -58 52 -12 427
-75 446 -75 16 0 22 8 27 43 3 23 9 50 11 59 4 13 -3 18 -28 22 -18 3 -123 22
-234 41 -218 38 -221 38 -227 28z"/>
<path d="M980 4708 c-80 -16 -148 -33 -152 -36 -7 -7 10 -103 21 -114 3 -3 69
7 146 23 77 15 154 29 171 29 42 0 73 -27 80 -71 5 -28 1 -41 -18 -63 -20 -24
-42 -32 -181 -61 -87 -18 -160 -35 -162 -37 -7 -8 19 -118 29 -118 22 0 302
61 330 72 78 31 120 95 119 183 -1 100 -41 171 -118 206 -53 25 -93 23 -265
-13z"/>
<path d="M9416 4426 c-21 -73 -22 -72 24 -102 22 -15 40 -27 40 -28 0 0 -7
-23 -15 -51 -9 -27 -20 -66 -25 -86 -10 -35 -13 -37 -63 -43 l-54 -7 -17 -55
c-10 -31 -16 -58 -13 -60 2 -3 120 4 262 15 185 14 260 23 266 33 11 16 34
117 28 121 -2 2 -97 74 -211 160 l-207 156 -15 -53z m232 -246 l64 -45 -39 -7
c-54 -10 -133 -10 -133 1 0 4 5 23 11 42 6 19 13 40 15 47 5 17 6 17 82 -38z"/>
<path d="M1090 4087 c-82 -55 -92 -135 -36 -291 19 -54 37 -100 39 -102 3 -3
451 152 464 161 7 4 -33 108 -43 112 -6 2 -42 -8 -79 -22 -37 -14 -69 -24 -70
-23 -1 2 -9 25 -19 51 -21 56 -57 102 -97 122 -43 23 -120 19 -159 -8z m122
-108 c18 -10 48 -64 48 -88 0 -5 -23 -17 -51 -26 -62 -21 -72 -13 -73 52 -1
40 3 49 24 60 30 15 27 15 52 2z"/>
<path d="M9191 3769 c-11 -29 -21 -55 -21 -59 0 -4 77 -41 171 -81 188 -80
180 -72 145 -151 l-16 -37 46 -21 c26 -11 50 -20 54 -20 5 0 109 232 148 330
2 6 -15 15 -94 46 -5 3 -20 -21 -33 -51 -13 -32 -28 -54 -35 -52 -6 3 -84 37
-174 76 -89 39 -164 71 -166 71 -2 0 -13 -23 -25 -51z"/>
<path d="M1416 3544 c-104 -79 -191 -146 -194 -149 -2 -2 8 -25 23 -50 l27
-47 46 6 c123 15 274 27 278 23 2 -2 -42 -62 -98 -132 l-102 -128 26 -46 c14
-25 32 -45 40 -43 14 3 451 164 456 168 5 3 -52 104 -60 104 -3 0 -59 -20
-124 -45 -65 -24 -119 -43 -121 -41 -2 1 23 36 55 77 121 154 116 146 102 179
-7 17 -20 30 -29 29 -9 0 -73 -6 -143 -13 -71 -6 -128 -9 -128 -6 1 3 48 40
105 82 l103 77 -26 50 c-15 28 -31 51 -37 50 -5 0 -95 -65 -199 -145z"/>
<path d="M9004 3389 c-14 -28 -24 -52 -22 -54 10 -8 421 -235 427 -235 5 0 61
94 61 104 0 7 -416 236 -428 236 -7 0 -23 -23 -38 -51z"/>
<path d="M8867 3076 c-97 -35 -166 -113 -188 -212 -46 -207 180 -378 371 -279
120 62 181 223 130 343 -53 122 -196 189 -313 148z m138 -135 c96 -54 98 -183
3 -241 -60 -36 -130 -21 -181 39 -49 58 -44 131 12 185 49 47 103 52 166 17z"/>
<path d="M1889 2924 c-63 -19 -131 -81 -159 -146 -45 -104 -6 -242 89 -315 54
-42 140 -67 194 -59 96 16 186 92 213 183 30 100 7 182 -75 264 -82 82 -162
104 -262 73z m151 -129 c69 -36 95 -109 61 -177 -28 -57 -63 -81 -126 -86 -44
-4 -55 -1 -83 23 -63 53 -79 122 -42 183 40 65 125 91 190 57z"/>
<path d="M8431 2591 l-45 -40 97 -104 c53 -58 97 -107 97 -109 0 -2 -62 2
-137 8 -226 20 -244 19 -278 -16 l-29 -30 144 -147 c79 -82 156 -161 172 -178
l28 -29 40 39 c22 21 40 42 40 46 0 3 -42 51 -94 105 -79 84 -90 99 -72 102
12 2 98 -4 191 -12 l170 -15 32 32 32 32 -172 178 -172 178 -44 -40z"/>
<path d="M2380 2424 c-8 -4 -30 -13 -49 -21 l-35 -14 45 -45 c41 -42 46 -44
85 -38 30 4 53 1 78 -11 110 -53 107 -197 -6 -253 -40 -20 -51 -22 -87 -12
-72 19 -121 91 -105 154 4 18 -4 32 -42 65 l-48 42 -13 -25 c-56 -108 3 -262
128 -331 46 -25 65 -30 125 -30 61 0 77 4 119 30 158 98 180 297 46 418 -22
20 -54 43 -72 53 -34 17 -142 28 -169 18z"/>
<path d="M3113 1730 c-40 -24 -53 -48 -53 -99 0 -58 40 -101 101 -108 41 -5
50 -2 81 26 42 36 53 79 34 125 -29 70 -100 95 -163 56z"/>
<path d="M7484 1676 c-101 -101 37 -254 150 -165 84 66 35 199 -74 199 -34 0
-48 -6 -76 -34z"/>
<path d="M3946 1522 c-9 -17 -146 -442 -146 -455 0 -10 45 -29 143 -61 78 -25
147 -46 154 -46 6 0 18 20 26 45 l16 45 -32 13 c-18 7 -60 22 -94 32 -67 21
-69 24 -52 74 13 37 23 38 114 6 39 -14 73 -25 77 -25 4 0 11 15 16 33 6 17
13 39 17 48 5 14 -9 22 -77 44 -46 15 -87 31 -91 35 -5 4 -2 24 7 43 l15 36
83 -29 c46 -16 88 -30 94 -30 12 0 41 87 32 96 -11 10 -298 102 -302 96z"/>
<path d="M6660 1469 c-36 -11 -108 -34 -161 -50 l-97 -29 15 -53 c9 -28 16
-53 17 -54 1 -1 26 5 55 14 29 8 57 11 61 7 4 -5 31 -85 58 -177 28 -93 52
-171 55 -173 3 -4 108 24 115 31 2 2 -20 81 -48 177 -29 95 -53 177 -54 181 0
5 24 17 54 26 59 18 60 20 39 89 -12 38 -20 38 -109 11z"/>
<path d="M4428 1128 c-87 -143 -132 -225 -124 -229 6 -4 34 -10 63 -14 l52 -7
21 41 c25 50 24 50 187 15 18 -3 24 -13 29 -54 l6 -49 50 -10 c75 -17 80 -15
74 17 -11 50 -86 474 -86 482 0 8 -86 30 -119 30 -13 0 -57 -65 -153 -222z
m196 -7 l13 -82 -29 6 c-15 3 -41 8 -58 11 -16 3 -30 7 -30 9 0 9 83 145 87
142 2 -2 10 -41 17 -86z"/>
<path d="M6035 1321 c-23 -10 -53 -33 -68 -50 -50 -60 -29 -169 41 -205 16 -8
60 -20 98 -27 92 -16 110 -23 117 -49 8 -31 -25 -60 -68 -60 -33 0 -41 5 -68
42 -10 14 -19 15 -69 5 -32 -5 -58 -15 -58 -20 0 -25 47 -87 80 -106 85 -48
242 -13 290 63 38 62 18 151 -44 191 -13 9 -60 23 -103 30 -98 17 -111 22
-119 47 -8 25 22 58 53 58 33 0 63 -17 63 -36 0 -12 7 -14 30 -10 17 3 44 9
60 12 20 4 30 11 30 24 0 27 -49 80 -87 96 -45 19 -130 17 -178 -5z"/>
<path d="M5014 1054 c-5 -126 -9 -238 -9 -249 0 -18 8 -20 63 -23 l62 -3 0 48
c0 64 11 123 21 123 5 0 39 -40 75 -90 l66 -90 74 0 74 0 -69 93 -70 92 40 33
c89 76 72 210 -34 263 -32 17 -66 22 -163 27 l-121 5 -9 -229z m236 96 c45
-45 9 -100 -65 -100 l-45 0 0 38 c0 70 8 82 51 82 26 0 46 -7 59 -20z"/>
<path d="M5600 1273 c0 -5 7 -98 15 -208 8 -110 15 -219 15 -242 l0 -43 53 0
c28 0 58 4 65 8 10 7 9 52 -3 228 -8 120 -15 229 -15 242 0 21 -4 22 -65 22
-36 0 -65 -3 -65 -7z"/>
</g>
</svg>
